<svg width="56" height="56" viewBox="0 0 56 56" fill="none" xmlns="http://www.w3.org/2000/svg">
<path d="M30.5574 0.791236C30.0805 1.29862 30.0371 1.40625 30.1094 2.00588C30.2394 3.00528 30.7887 3.43579 32.1039 3.57416C39.8365 4.40443 46.9621 9.87803 50.2863 17.5196C53.2637 24.3769 53.1192 32.1107 49.8672 38.8297C46.0659 46.7019 38.8103 51.622 30.4273 52.0371C24.0967 52.3446 17.9685 49.7923 13.3868 44.9337C7.37413 38.5683 5.17721 29.0664 7.76438 20.5177C8.38587 18.4574 8.77612 17.4888 8.87729 17.7963C8.92065 17.9193 9.123 18.8111 9.32535 19.7797C9.74449 21.7324 9.83122 21.9784 10.2937 22.3166C11.0742 22.9009 12.4473 22.3474 12.6496 21.3634C12.7508 20.856 11.1176 13.0607 10.7418 12.292C10.4527 11.6769 9.81676 11.2926 9.10854 11.3079C8.45814 11.3079 1.37596 14.2754 0.927908 14.7366C0.205237 15.4593 0.407585 16.7662 1.3037 17.2582C1.92519 17.5964 2.142 17.5657 4.13657 16.72C5.14831 16.2895 5.9866 15.9666 6.01551 15.982C6.02997 16.0128 5.7698 16.7969 5.42292 17.7194C-0.0549249 32.2798 7.25851 48.9313 21.3217 53.9129C24.4725 55.0353 25.6433 55.2198 29.4156 55.2198C32.3352 55.2351 32.9422 55.189 34.3731 54.8815C39.5185 53.7745 44.1436 51.1914 47.7281 47.4399C55.4028 39.3832 57.6142 27.2829 53.336 16.7662C51.7461 12.8147 49.2457 9.2784 46.1093 6.49547C42.3225 3.14366 36.8591 0.698984 32.3207 0.329977L31.0922 0.22235L30.5574 0.791236Z" fill="white"/>
<path d="M28.3894 16.7047C28.1437 16.8738 27.8691 17.2274 27.7679 17.5042C27.5656 18.1499 27.5511 27.5596 27.7535 28.19C27.898 28.6205 33.636 34.5708 34.3153 34.9705C34.8645 35.3088 35.5149 35.2011 36.0208 34.7245C36.4255 34.3401 36.4978 34.171 36.4978 33.556V32.8333L33.636 29.8813L30.7742 26.9446L30.7887 22.5627C30.7887 19.9489 30.7309 17.9501 30.6297 17.5964C30.5285 17.1967 30.3262 16.9199 30.0226 16.72C29.4445 16.3357 28.9675 16.3357 28.3894 16.7047Z" fill="white"/>
</svg>
