<svg width="17" height="17" viewBox="0 0 17 17" fill="none" xmlns="http://www.w3.org/2000/svg">
<path d="M1.25222 0.162042C0.964413 0.287072 0.757943 0.562137 0.695376 0.893465C0.607783 1.36232 0.626553 1.38733 4.0427 4.80689L7.27114 8.0389L4.03644 11.2772C2.25329 13.0588 0.770456 14.5904 0.732916 14.6842C0.626553 14.978 0.657836 15.3156 0.814253 15.5469C1.10832 15.9783 1.57131 16.1471 2.02805 15.9783C2.1219 15.9408 3.65478 14.4592 5.43794 12.6775L8.6789 9.44548L11.9136 12.6775C14.7228 15.4719 15.1921 15.9158 15.4173 15.9845C16.1494 16.1971 16.8439 15.5032 16.6311 14.7717C16.5623 14.5467 16.1181 14.0778 13.3213 11.2709L10.0866 8.0389L13.3213 4.80063C15.8866 2.23128 16.5623 1.51861 16.6249 1.33107C16.8439 0.637154 16.2432 -0.0380047 15.5049 0.0682703C15.2234 0.105779 15.1483 0.174545 11.9449 3.36905L8.6789 6.63232L5.46922 3.43156C3.26061 1.21854 2.19072 0.199551 2.0343 0.130785C1.72773 0.00575556 1.57131 0.012007 1.25222 0.162042Z" fill="white"/>
</svg>
