<svg width="17" height="17" viewBox="0 0 17 17" fill="none" xmlns="http://www.w3.org/2000/svg">
<path d="M13.9586 0.301897C13.7145 0.364778 13.6019 0.418227 13.386 0.562853C13.2483 0.65403 6.11734 7.78157 5.99843 7.94821C5.93273 8.03939 4.96899 11.4758 4.96899 11.6204C4.96899 11.7965 5.17238 11.9977 5.35073 11.9977C5.48841 11.9977 8.91153 11.0262 8.99914 10.9633C9.04608 10.9288 10.6982 9.27814 12.6726 7.2911C15.2916 4.6564 16.2928 3.62829 16.3867 3.48052C16.6183 3.11582 16.7153 2.63163 16.6433 2.2009C16.6214 2.07828 16.5494 1.87077 16.4775 1.71672C16.3648 1.47777 16.3054 1.40546 15.908 1.00616C15.5106 0.60687 15.4386 0.550277 15.2008 0.433947C14.7784 0.229584 14.3873 0.188712 13.9586 0.301897ZM14.866 1.15708C15.0381 1.24197 15.6733 1.88335 15.7672 2.06256C15.8297 2.18203 15.8423 2.2512 15.8423 2.50273C15.8423 2.88316 15.7859 3.00577 15.4292 3.37991L15.1727 3.6503L14.2246 2.69766L13.2765 1.74501L13.5518 1.48091C13.7052 1.33629 13.8898 1.18852 13.9649 1.15079C14.2371 1.01874 14.6001 1.02188 14.866 1.15708ZM13.6676 3.27302L14.5907 4.20051L11.6713 7.13076L8.75508 10.0641L7.83203 9.13666C7.32513 8.62732 6.90897 8.19659 6.90897 8.17772C6.90897 8.13685 12.6726 2.34552 12.7133 2.34552C12.732 2.34552 13.1607 2.76368 13.6676 3.27302ZM7.96657 10.454C7.8508 10.4917 5.95463 11.0168 5.94837 11.0136C5.94524 11.0105 6.04224 10.6521 6.16114 10.2214C6.28004 9.78747 6.40833 9.3253 6.44588 9.18696L6.51159 8.94173L7.25629 9.69001C7.66932 10.105 7.98535 10.4477 7.96657 10.454Z" fill="white"/>
<path d="M2.1529 1.86134C1.49894 2.03741 0.995171 2.50902 0.763625 3.16298L0.666626 3.43022V9.01089C0.666626 14.3338 0.669755 14.601 0.722948 14.7771C0.838721 15.1544 0.963881 15.365 1.24549 15.648C1.44262 15.846 1.57091 15.9467 1.73674 16.0284C2.19358 16.2579 1.74613 16.2453 8.34832 16.2359L14.2778 16.2265L14.4874 16.1447C15.1038 15.9026 15.5388 15.4593 15.7421 14.8588C15.811 14.6576 15.811 14.6262 15.8204 12.6265C15.8298 10.8061 15.8266 10.5892 15.7797 10.5012C15.714 10.3754 15.5794 10.3 15.423 10.3C15.3197 10.3 15.2697 10.322 15.1758 10.4068L15.06 10.5137L15.0444 12.5071C15.0287 14.491 15.0287 14.4972 14.9568 14.6765C14.8285 14.9972 14.5875 15.2392 14.2684 15.3681L14.09 15.4405L8.35145 15.4499C4.56223 15.453 2.55341 15.4467 2.43764 15.4247C2.06216 15.3556 1.72736 15.0978 1.57091 14.7551L1.48017 14.5601V9.02661V3.4931L1.57091 3.29503C1.68668 3.0435 1.95264 2.78884 2.20609 2.68508L2.38758 2.61277L4.35884 2.59705C6.56166 2.57819 6.4365 2.59391 6.54914 2.35496C6.62111 2.20404 6.58982 2.05627 6.45214 1.92108L6.34263 1.81104L4.33381 1.81418C2.66606 1.81418 2.29683 1.82362 2.1529 1.86134Z" fill="white"/>
</svg>
