<svg width="44" height="48" viewBox="0 0 44 48" fill="none" xmlns="http://www.w3.org/2000/svg">
<path d="M39.199 0.15567C38.8512 0.271686 38.5599 0.494049 38.0711 1.00645C37.5259 1.56719 37.2909 1.92491 36.7081 3.0754C36.3227 3.83917 35.8903 4.56426 35.74 4.68995C35.317 5.05733 34.4334 5.27969 33.1362 5.34737C31.2563 5.45372 30.5231 5.71475 29.6678 6.56553L29.273 6.96192L28.5022 6.68155C26.8573 6.07247 26.0207 6.17882 25.1371 7.11661C24.216 8.09307 21.7438 10.9548 21.5652 11.2545C21.4713 11.4092 21.3491 11.7669 21.2927 12.0473L21.1893 12.5597H20.3151C18.7359 12.5597 17.2132 13.1398 16.151 14.1452C15.2299 15.0057 0.481787 31.8956 0.237395 32.3597C-0.0727941 32.9591 -0.0821937 33.9742 0.227995 34.941C1.62855 39.3593 8.03912 45.5565 12.927 47.2387C13.6037 47.461 13.8857 47.5094 14.7223 47.5094C15.6623 47.5094 15.7375 47.4997 16.151 47.2193C16.433 47.026 19.2059 43.9419 24.122 38.3248C28.2672 33.5875 31.8203 29.5076 32.0271 29.2466C32.4971 28.6472 32.9952 27.5644 33.1738 26.7716C33.3336 26.0852 33.3712 24.6156 33.2396 24.0452L33.155 23.6875L33.625 23.5425C33.8788 23.4651 34.2172 23.3105 34.3864 23.1848C34.8658 22.8464 38.2309 18.9502 38.4659 18.4668C38.8418 17.7224 38.6726 16.5816 38.0241 15.3731L37.7421 14.8607L38.0805 14.4643C38.8418 13.5361 39.0862 12.4727 38.9452 10.6357C38.8606 9.49493 38.964 8.69249 39.2554 8.09307C39.4058 7.80303 39.7066 7.542 40.6654 6.89425C42.7051 5.51173 43.2973 4.74796 43.3631 3.42344C43.4101 2.52432 43.1563 1.81856 42.5265 1.10313C41.6617 0.136335 40.3364 -0.240716 39.199 0.15567ZM41.5584 1.13214C41.9061 1.32549 42.3385 1.90557 42.4043 2.27296C42.5077 2.8337 42.3855 3.63614 42.1223 4.08087C41.7839 4.67061 41.3046 5.10567 40.0826 5.91778C38.8418 6.74923 38.3249 7.29063 38.0617 8.03507C37.9113 8.47979 37.8831 8.82784 37.8831 10.5777C37.8831 12.5113 37.8643 12.6274 37.6575 13.0431C37.3943 13.5651 36.9525 14.0679 36.5765 14.2709C36.2475 14.4449 35.4016 14.4643 34.8282 14.2999C33.0704 13.8165 30.9461 11.9023 30.1753 10.104C29.6584 8.89551 29.79 7.95772 30.5701 7.25196C31.1529 6.72022 31.6887 6.56553 33.2584 6.46885C35.8715 6.31417 36.5295 5.89844 37.6293 3.71348C38.3437 2.29229 38.7854 1.67354 39.3494 1.31583C40.0168 0.900104 40.985 0.813092 41.5584 1.13214ZM28.3706 7.47432L28.8594 7.61934V8.66348C28.8594 9.5336 28.897 9.8043 29.0756 10.2587C29.4046 11.0901 30.1095 12.1343 30.8803 12.9367C32.8167 14.938 35.0632 15.9145 36.6517 15.4214L37.0841 15.286L37.2251 15.6244C37.8643 17.2003 37.7703 18.0898 36.9149 18.4765C35.176 19.2692 30.7769 16.9683 28.4082 14.0195C27.6186 13.0527 27.2802 12.521 26.6693 11.3512C26.1711 10.394 26.1711 10.3844 26.2275 10.8484C26.5095 13.0237 28.2484 15.315 31.3691 17.6064C32.6663 18.5635 34.9128 19.6173 35.6554 19.6173C35.8057 19.6173 35.9467 19.6463 35.9843 19.6753C36.0689 19.7623 33.8224 22.2857 33.5498 22.4113C32.8543 22.7304 31.1341 22.3533 29.7054 21.5606C26.1899 19.6076 22.8248 15.7404 22.2702 13.0334C22.054 11.9699 22.0916 11.9023 23.9246 9.8043C26.1523 7.26163 26.0959 7.31964 26.5753 7.24229C27.0265 7.18428 27.6562 7.26163 28.3706 7.47432ZM21.1329 13.5168C21.2457 13.5555 21.4243 13.9035 21.6122 14.4159C22.5052 16.8619 24.8739 19.6656 27.7596 21.6862C29.0286 22.566 30.6453 23.3395 31.6511 23.5328C31.9707 23.5908 32.0177 23.6488 32.1211 24.0066C32.1775 24.2192 32.2245 24.7993 32.2245 25.2827C32.2339 26.3655 31.9519 27.3227 31.4067 28.1734C30.8427 29.0242 15.6999 46.2622 15.4461 46.3396C14.7787 46.5233 13.5379 46.1945 12.034 45.4404C8.09552 43.4778 3.50848 38.9919 1.75074 35.3954C1.29016 34.4673 1.01757 33.3265 1.15856 32.9591C1.27136 32.6691 15.869 15.7598 16.7244 14.9187C17.3918 14.2806 18.2378 13.7972 19.0931 13.5845C19.6853 13.4395 20.8509 13.4008 21.1329 13.5168Z" fill="white"/>
<path d="M25.4473 25.0893C25.2875 25.2054 25.2405 25.3214 25.2593 25.5437C25.2781 25.7951 25.4003 25.9401 25.9361 26.3462C26.7727 27.0036 28.2578 27.7867 28.991 27.9897C29.5268 28.1251 29.5926 28.1251 29.8088 27.9897C30.0344 27.8254 30.1096 27.4387 29.9592 27.1776C29.9122 27.1196 29.6396 26.9939 29.3482 26.9166C28.662 26.7329 27.7596 26.2592 26.6975 25.5244C26.2369 25.1957 25.8045 24.9346 25.7575 24.9346C25.7011 24.9346 25.5601 25.0023 25.4473 25.0893Z" fill="white"/>
<path d="M5.5858 29.2853C4.11945 30.9482 2.8223 32.4467 2.7095 32.6208C2.25832 33.3072 2.23952 34.1676 2.66251 35.0377C4.08186 37.9768 8.01092 41.9793 11.5264 44.0483C12.8517 44.8217 13.6601 45.1408 14.3181 45.1408C15.3803 45.1408 15.3333 45.1794 20.4937 39.2723C23.0504 36.3333 25.1465 33.9163 25.1465 33.8969C25.1465 33.7326 22.5804 32.3114 21.5746 31.9247C20.0707 31.3349 19.5255 31.2769 16.2638 31.2672C13.6507 31.2672 13.1713 31.2382 12.645 31.0932C10.5206 30.4841 8.96968 28.9276 8.4151 26.8586L8.25531 26.2592L5.5858 29.2853ZM8.84749 29.7494C9.51487 30.7355 10.7556 31.6346 12.0152 32.0407C13.1713 32.4177 14.1583 32.4951 15.6998 32.3307C18.1438 32.06 20.4091 32.1567 22.0258 32.5821C22.712 32.7561 24.1126 33.3942 24.1126 33.5295C24.1126 33.5585 23.8024 33.9259 23.4264 34.332L22.7496 35.0861L22.3266 34.9894C21.7532 34.8444 20.5595 34.216 19.6759 33.5779C18.9427 33.0558 18.5386 32.9301 18.3036 33.1718C18.1344 33.3458 18.1626 33.7906 18.36 33.9839C18.6889 34.3223 20.3715 35.3955 21.0671 35.7048C21.4524 35.8789 21.7814 36.0625 21.7814 36.1012C21.7908 36.1399 21.2269 36.8263 20.5313 37.6191C19.2717 39.0596 19.2717 39.0596 18.9145 39.0209C18.407 38.9533 17.2602 38.3635 16.198 37.6288C15.4743 37.1357 15.2299 37.01 15.0419 37.0583C14.7599 37.1357 14.5813 37.4451 14.6565 37.7448C14.7411 38.1025 16.997 39.572 18.0592 39.9587L18.36 40.0651L16.6868 41.9503C14.9479 43.9129 14.6565 44.145 14.0925 44.029C13.6695 43.9516 12.0058 43.0622 11.0094 42.3854C8.21771 40.5001 5.18162 37.3194 3.83746 34.9024C3.39568 34.1 3.33928 33.7422 3.61187 33.2975C3.70587 33.1332 4.74923 31.9053 5.92419 30.5615L8.06732 28.1155L8.28351 28.6762C8.4057 28.9759 8.6595 29.4593 8.84749 29.7494Z" fill="white"/>
<path d="M21.8567 29.1886C21.4713 29.5849 21.6969 29.904 22.9094 30.7161C24.2818 31.6249 25.3063 32.089 25.9455 32.089C26.4625 32.089 26.7539 31.5185 26.3967 31.1995C26.3027 31.1222 25.9737 30.9868 25.6635 30.8901C24.9022 30.6484 24.3758 30.3681 23.3042 29.6236C22.8154 29.2756 22.3266 28.9952 22.2232 28.9952C22.1292 28.9952 21.9601 29.0822 21.8567 29.1886Z" fill="white"/>
<path d="M9.89085 2.94958C8.5279 3.20095 7.19314 3.86804 6.27197 4.76716C5.5858 5.41492 4.74923 6.85544 4.36384 8.00593C4.09125 8.81804 4.14765 8.7987 4.68343 7.87058C5.39781 6.60408 6.60096 5.39558 7.71952 4.80583C9.98485 3.59734 12.5792 3.49099 16.2168 4.43845C17.3824 4.73816 19.6007 5.50193 20.7193 5.97566C21.1047 6.14001 21.443 6.27536 21.4712 6.27536C21.584 6.2657 20.2023 5.47292 19.1307 4.92185C15.7562 3.18161 12.4382 2.47585 9.89085 2.94958Z" fill="white"/>
<path d="M15.0983 7.78372C14.2899 8.00608 13.679 8.3928 13.3782 8.8762C13.0962 9.34026 13.0492 9.64964 13.2278 9.83333C13.5004 10.1137 14.1583 9.85267 14.8539 9.17591C15.5965 8.45081 16.9876 8.14144 18.783 8.29612C19.3564 8.34446 19.8451 8.37347 19.8639 8.3638C19.9203 8.30579 18.7642 7.89974 18.1626 7.76438C17.3448 7.59036 15.7563 7.60003 15.0983 7.78372Z" fill="white"/>
<path d="M36.8116 41.1478C36.4826 42.192 35.928 43.2264 35.2418 44.0482C34.0199 45.5081 31.8391 46.5522 29.3294 46.8713C27.5435 47.0936 24.2536 46.9486 22.0259 46.5426C20.9919 46.3589 20.8509 46.3685 21.4807 46.6006C22.3361 46.9196 24.075 47.3547 25.2782 47.5577C31.8391 48.6695 36.2194 46.3975 37.0466 41.4475C37.2627 40.1424 37.1782 40.0167 36.8116 41.1478Z" fill="white"/>
<path d="M27.7879 42.3272C26.8855 43.2747 26.3685 43.6034 25.2876 43.8838C24.7518 44.0288 22.9188 44.2705 22.3831 44.2705C22.1669 44.2705 22.4489 44.3865 23.135 44.5605C23.981 44.7926 25.5038 44.8312 26.2369 44.6475C27.4683 44.3478 28.7372 43.4391 29.179 42.5496C29.5174 41.8632 29.4046 41.4668 28.8782 41.4668C28.6526 41.4668 28.4458 41.6311 27.7879 42.3272Z" fill="white"/>
</svg>
