<svg width="49" height="50" viewBox="0 0 49 50" fill="none" xmlns="http://www.w3.org/2000/svg">
<path d="M18.9142 0.243113C14.2822 1.24971 10.4106 3.38491 7.10916 6.7504C5.07829 8.81443 3.73772 10.7463 2.44716 13.4712C-0.944294 20.5885 -0.804234 28.9768 2.82732 35.9823C7.61938 45.245 17.2935 50.461 27.588 49.3528C33.1203 48.763 37.7723 46.6075 41.4639 42.9573C43.1947 41.2288 44.5052 39.48 45.6157 37.3956C46.396 35.9213 46.246 35.8197 44.4952 36.6737C42.5844 37.6092 40.1634 38.3616 37.9524 38.7073L37.3822 38.7988L37.8824 38.2395C38.9128 37.1008 39.6731 35.4028 39.8132 33.9488C39.9533 32.4948 39.413 31.0307 38.3826 30.0546C37.6823 29.4039 37.092 29.048 36.0716 28.682L35.3213 28.4075L31.7898 28.438C28.7084 28.4583 27.2778 28.3973 27.0977 28.2244C27.0777 28.2041 27.1578 27.9804 27.2678 27.7364C27.4779 27.2483 27.5379 26.3129 27.3679 25.8757C27.2878 25.6419 27.3278 25.5707 27.768 25.1436C28.3883 24.5539 28.6984 23.9235 28.6984 23.2321C28.6984 22.6322 28.5184 22.2357 28.0682 21.7985C27.798 21.5341 27.678 21.4935 27.1878 21.4935C26.8776 21.4935 26.5475 21.5341 26.4475 21.5748C26.3074 21.646 26.2674 21.5646 26.1673 21.0664C25.5571 18.0568 23.7463 15.6674 21.1452 14.427C18.7842 13.3085 15.8429 13.1662 13.692 14.0711C13.4919 14.1524 13.3118 14.2033 13.2818 14.1829C13.1918 14.0813 13.692 12.0274 14.1222 10.7361C15.2727 7.28928 17.2835 3.9543 19.7446 1.39206C20.3749 0.741327 20.8551 0.161772 20.815 0.100766C20.715 -0.0720834 20.1247 -0.0212452 18.9142 0.243113ZM18.0038 1.95128C14.9225 5.26592 12.9016 9.33298 12.1613 13.7152C12.0013 14.6608 11.9212 14.915 11.7311 15.0675C10.4706 16.1046 10.0904 16.4707 9.55021 17.1926C8.78988 18.2195 8.15961 19.5616 7.84948 20.7817C7.54935 21.9815 7.52934 24.1167 7.79946 25.408C8.04957 26.5874 8.48975 27.8279 9.02999 28.8752C10.4706 31.6611 13.5119 34.3758 15.973 35.0672L16.5932 35.2299L16.6132 35.84C16.6333 36.5619 16.8934 37.1211 17.4436 37.6295C19.2944 39.3275 22.8059 39.5817 24.8368 38.1582C25.6371 37.599 25.5671 37.5176 24.5266 37.7922C22.8059 38.2497 20.615 38.209 19.4645 37.7007C18.364 37.2126 17.8638 36.6331 17.8638 35.8603C17.8638 35.2808 18.1139 34.9351 18.7141 34.7012C19.1143 34.5487 19.4144 34.5385 21.4053 34.5995L23.6363 34.6809L23.4562 34.1217C23.3561 33.8065 23.2361 33.2472 23.2061 32.8609C23.036 30.9799 24.0664 29.8106 26.3174 29.3327L26.9177 29.2005L26.5375 29.1192C26.3174 29.0785 25.8472 29.0683 25.477 29.0887C23.4862 29.231 21.9755 31.1934 22.3457 33.1557C22.3957 33.4201 22.4257 33.6539 22.4057 33.6743C22.3857 33.6946 21.9956 33.6438 21.5454 33.5726C21.0852 33.4913 20.2648 33.4201 19.7146 33.4099C18.8142 33.3998 18.6541 33.4201 18.1139 33.6743C17.7837 33.837 17.3936 34.081 17.2435 34.2233L16.9734 34.4775L16.2931 34.2742C13.4219 33.3794 10.4306 30.0749 9.27009 26.5264C8.56979 24.3709 8.5898 21.7985 9.32011 19.9785C9.95038 18.3923 11.281 16.8062 12.7216 15.9318C14.2722 14.9862 16.2431 14.5286 17.9438 14.732C20.9151 15.0675 23.2561 16.7655 24.6367 19.5616C25.0569 20.3954 25.467 21.768 25.5371 22.5306C25.5671 22.8864 25.6271 23.1711 25.6671 23.1711C25.7071 23.1711 25.8172 23.0796 25.9272 22.9576C26.4275 22.3882 27.0277 22.317 27.4079 22.7746C27.9581 23.4253 27.598 24.6556 26.7076 25.2046C26.4875 25.3368 26.3074 25.4487 26.2874 25.4588C26.2674 25.4792 26.3574 25.6622 26.4875 25.8757C26.6876 26.2214 26.7176 26.4146 26.7176 27.3195V28.3668L27.0277 28.5701C27.718 29.0073 28.7685 29.1802 31.5697 29.2819C35.5714 29.4445 36.4017 29.6377 37.4622 30.7053C39.0029 32.2406 39.1729 34.6605 37.9024 37.1109C37.5122 37.8938 36.5718 39.0936 36.2917 39.175C36.1816 39.2156 35.8615 39.1241 35.5614 38.992C34.2208 38.3616 32.4901 38.1887 31.7297 38.5954L31.3296 38.7988L31.9298 38.8801C33.4905 39.0733 35.3013 39.724 35.9916 40.3442C36.5318 40.8221 36.992 41.6152 37.012 42.0829C37.032 43.059 36.1216 43.1708 35.0211 42.3371C34.741 42.1236 34.621 42.1134 33.0203 42.1134C31.6997 42.1134 31.0995 42.0626 30.3391 41.8999C27.9381 41.3915 26.7676 40.2934 26.7676 38.5547C26.7676 37.5482 27.0377 36.8466 27.718 36.1043C28.7685 34.9554 30.089 34.386 32.6201 33.9895L33.1203 33.9183L32.7202 33.837C31.5697 33.6133 29.7989 33.8166 28.6984 34.3148C27.5379 34.8334 26.5275 35.7688 26.0373 36.7957C25.7472 37.3956 25.7272 37.5482 25.7272 38.4226C25.7272 39.6732 25.9673 40.3239 26.7376 41.1678C27.768 42.3066 29.4588 42.9167 31.9198 43.059C32.5301 43.0895 33.3704 43.0793 33.8006 43.0285C34.4909 42.9472 34.591 42.9573 34.741 43.12C34.8311 43.2217 35.1412 43.425 35.4413 43.5674C35.8715 43.7809 36.0716 43.8317 36.4818 43.7911C37.9624 43.6386 38.4226 42.0321 37.4122 40.5883C37.2321 40.3239 37.092 40.1002 37.102 40.0901C37.112 40.0799 37.7323 39.9477 38.4726 39.7952C40.0833 39.4698 41.724 38.9411 43.2547 38.2395C43.8649 37.965 44.3752 37.7515 44.3752 37.782C44.3752 37.8125 44.055 38.2701 43.6549 38.8089C42.7144 40.0901 40.3934 42.4489 39.1229 43.4047C34.8511 46.6482 30.039 48.2852 24.7667 48.2852C22.5858 48.2852 21.0151 48.092 19.0143 47.5734C14.6524 46.4448 11.1009 44.3706 7.93952 41.1068C2.39714 35.3824 0.0661392 27.3602 1.66683 19.4803C2.59723 14.8438 4.92823 10.5429 8.31968 7.20794C10.2805 5.27609 12.0613 3.99497 14.5123 2.77485C15.8329 2.11396 18.1639 1.21921 18.5541 1.20904C18.6241 1.20904 18.384 1.54457 18.0038 1.95128Z" fill="white"/>
<path d="M12.2113 17.1925C10.9508 18.6668 10.9508 20.3242 12.2113 21.5951C12.7916 22.195 13.3518 22.4594 14.0621 22.4594C15.0426 22.4594 16.053 21.7883 16.4231 20.8732C16.6132 20.4055 16.5932 19.5413 16.3731 19.0532C16.013 18.25 15.1226 17.7518 14.4423 17.9754C13.9921 18.128 13.4819 18.6668 13.4018 19.0837C13.3218 19.4904 13.5219 19.5209 13.862 19.1549C14.3623 18.616 15.0225 18.616 15.4427 19.1549C15.7529 19.5514 15.8129 20.0191 15.6128 20.4868C15.3027 21.2494 14.7324 21.6663 13.9721 21.6765C12.8016 21.6866 11.7711 20.5275 11.7611 19.2057C11.7611 18.4737 11.8812 18.0568 12.3014 17.345C12.4915 17.0299 12.6315 16.7655 12.6115 16.7655C12.5915 16.7655 12.4114 16.9587 12.2113 17.1925Z" fill="white"/>
<path d="M21.5754 26.2113C21.5053 26.3638 21.3053 26.6383 21.1352 26.8112C20.795 27.1467 19.8846 27.6449 19.6345 27.6449C19.5445 27.6449 19.4545 27.6856 19.4144 27.7364C19.3244 27.8991 19.7146 28.0516 20.1848 28.0516C21.1052 28.0415 22.0656 27.2789 22.0656 26.5468C22.0656 26.1909 21.9255 25.9164 21.7554 25.9164C21.7154 25.9164 21.6354 26.0486 21.5754 26.2113Z" fill="white"/>
<path d="M15.8329 30.1361C15.2727 30.6851 14.5824 31.0003 13.9921 31.0003C13.712 31.0003 13.702 31.1426 13.9621 31.407C14.3623 31.8137 15.4827 31.59 16.023 30.98C16.143 30.858 16.3131 30.6038 16.4031 30.4207C16.5632 30.0852 16.6232 29.5768 16.4932 29.5768C16.4432 29.587 16.153 29.831 15.8329 30.1361Z" fill="white"/>
<path d="M20.2248 30.8375C20.0347 31.1324 19.1143 31.7119 18.8142 31.7119C18.6241 31.7221 18.6241 31.7323 18.8542 31.9153C18.9943 32.0475 19.2344 32.1186 19.4845 32.1186C20.1948 32.1186 20.805 31.2442 20.4749 30.7155C20.4149 30.6138 20.3548 30.6443 20.2248 30.8375Z" fill="white"/>
<path d="M34.9511 1.8192C34.7811 2.06322 34.661 2.12422 34.3509 2.12422C33.9307 2.12422 33.8907 2.21573 34.1408 2.63261C34.2809 2.87663 34.2909 2.98847 34.1908 3.30367L34.0808 3.6697L34.531 3.59853C34.8911 3.54769 35.0212 3.5782 35.2313 3.74088C35.5614 4.00524 35.6715 3.93406 35.6715 3.46635C35.6715 3.15116 35.7215 3.04948 35.9816 2.89696C36.3417 2.68344 36.3117 2.51059 35.8915 2.38858C35.6414 2.31741 35.5514 2.21573 35.4514 1.9107C35.3913 1.68702 35.3013 1.51417 35.2613 1.51417C35.2113 1.51417 35.0812 1.64635 34.9511 1.8192Z" fill="white"/>
<path d="M44.7853 4.02553C44.4452 4.46274 44.6853 4.97112 45.2355 4.97112C45.7958 4.97112 46.0659 4.3509 45.6757 3.95436C45.3956 3.66967 45.0354 3.70017 44.7853 4.02553Z" fill="white"/>
<path d="M25.357 6.33358C25.0068 6.50643 24.9668 7.12666 25.2869 7.35035C25.5871 7.56387 25.8272 7.5537 26.0673 7.30968C26.5575 6.81146 25.9772 6.01839 25.357 6.33358Z" fill="white"/>
<path d="M46.2659 9.17028C46.0659 9.59732 46.0158 9.62783 45.5656 9.68883C45.2955 9.7295 45.0554 9.80068 45.0154 9.86168C44.9854 9.92269 45.0954 10.126 45.2755 10.3091C45.5857 10.6344 45.5957 10.6751 45.5356 11.214C45.4656 11.7224 45.4756 11.7834 45.6457 11.7834C45.7457 11.7732 45.9758 11.6919 46.1659 11.5902C46.496 11.4072 46.5061 11.4072 46.9362 11.6512C47.4965 11.9664 47.6065 11.8952 47.5265 11.275C47.4665 10.8073 47.4765 10.7666 47.8366 10.4311C48.2668 10.0345 48.2268 9.88202 47.6565 9.79051C47.2164 9.70917 47.1463 9.65833 46.8962 9.14995C46.6561 8.65173 46.5161 8.65173 46.2659 9.17028Z" fill="white"/>
<path d="M34.4309 10.848C34.4109 10.8887 34.3309 11.2344 34.2708 11.6106L34.1508 12.302L33.5205 12.5867C32.5701 13.0239 32.5601 13.2069 33.4305 13.6441C34.0107 13.939 34.1708 14.183 34.1708 14.7626C34.1808 15.6878 34.4809 15.7793 35.1912 15.0676L35.6614 14.5999L36.2317 14.7117C37.3922 14.9558 37.4622 14.8744 37.012 13.8576L36.7519 13.2578L37.072 12.6274C37.5422 11.7428 37.4722 11.6411 36.4918 11.7224L35.7214 11.7936L35.2913 11.2751C34.9011 10.8074 34.5609 10.6447 34.4309 10.848Z" fill="white"/>
<path d="M27.4178 14.9862C27.2778 15.1184 27.1677 15.3014 27.1677 15.3929C27.1677 15.4844 27.2778 15.6674 27.4178 15.7996C27.5479 15.942 27.728 16.0538 27.818 16.0538C27.908 16.0538 28.0881 15.942 28.2182 15.7996C28.3582 15.6674 28.4683 15.4844 28.4683 15.3929C28.4683 15.3014 28.3582 15.1184 28.2182 14.9862C28.0881 14.8439 27.908 14.732 27.818 14.732C27.728 14.732 27.5479 14.8439 27.4178 14.9862Z" fill="white"/>
<path d="M45.1455 21.3716L44.6853 21.9206L43.945 21.8698C42.9846 21.8088 42.9146 21.9409 43.4548 22.7849L43.845 23.3949L43.5948 24.0355C43.2147 25.0217 43.3647 25.1539 44.4352 24.8387L44.9754 24.6862L45.4957 25.1437C45.7858 25.3979 46.0759 25.6115 46.1359 25.6115C46.356 25.6115 46.4661 25.3369 46.4961 24.6964L46.5261 24.0456L47.1264 23.6288C47.9267 23.0797 47.9267 22.8967 47.0763 22.5713C46.7162 22.429 46.4061 22.307 46.3961 22.2968C46.376 22.2866 46.276 21.9613 46.186 21.5749C45.9559 20.6598 45.7758 20.6192 45.1455 21.3716Z" fill="white"/>
<path d="M36.3017 22.246C36.0316 22.6425 36.0016 22.6527 35.4514 22.6629C34.7711 22.6629 34.721 22.7747 35.1312 23.3339C35.3913 23.6796 35.4013 23.7 35.2713 24.2388C35.2013 24.554 35.1712 24.8286 35.2013 24.8692C35.2413 24.8997 35.5114 24.8692 35.8115 24.7981C36.3317 24.676 36.3618 24.676 36.6919 24.9404C37.2421 25.3573 37.3722 25.3064 37.3722 24.6557C37.3722 24.1473 37.3922 24.0965 37.7524 23.822C38.3926 23.3238 38.3926 23.2627 37.6923 23.0289C37.2421 22.8764 37.1921 22.8255 37.0621 22.3782C36.872 21.7579 36.6619 21.7173 36.3017 22.246Z" fill="white"/>
</svg>
