<svg width="39" height="48" viewBox="0 0 39 48" fill="none" xmlns="http://www.w3.org/2000/svg">
<path d="M23.4866 0.0624331C19.8489 0.45882 16.888 2.46009 15.5909 5.41849C15.4405 5.75687 15.1021 6.79134 14.8389 7.7098C13.8331 11.2193 13.241 11.9444 9.76309 13.9843C7.28157 15.4442 5.82462 16.5753 4.02929 18.4219C1.77337 20.7616 0.636005 22.7145 0.156622 25.1025C-0.0877695 26.311 -0.0407712 28.3412 0.260018 29.4917C0.739402 31.3383 1.79216 33.3203 3.18332 34.9831C4.16088 36.153 5.92802 37.9609 6.08781 37.9609C6.14421 37.9609 5.67423 37.3228 5.04445 36.53C3.32431 34.3837 2.84493 33.678 2.23395 32.4018C0.983793 29.7721 0.730002 27.3551 1.45378 24.9865C2.15875 22.6661 3.89769 20.2202 6.28521 18.1802C7.32857 17.2811 7.85495 16.933 9.99808 15.6762C14.1997 13.2205 14.7637 12.5438 16.0515 8.37689C16.8504 5.79554 17.4238 4.72239 18.5894 3.62025C19.5857 2.67279 20.7043 2.07337 22.2459 1.68665C23.3268 1.41595 25.4793 1.38695 26.7295 1.63831C30.1134 2.31507 33.2059 4.20999 35.0012 6.714C35.3114 7.14906 35.5746 7.47777 35.5934 7.45843C35.678 7.38109 35.3866 6.35628 35.0952 5.7182C34.3526 4.06497 32.8581 2.62445 30.7244 1.51263C28.4214 0.323468 25.8741 -0.188934 23.4866 0.0624331Z" fill="white"/>
<path d="M35.9505 8.92797C36.1291 9.8851 36.1103 11.2773 35.8941 12.3214C35.6592 13.5203 35.067 14.7481 34.1646 15.9179C33.7698 16.4206 33.375 17.0297 33.281 17.2521L33.1212 17.6775L32.6983 17.6195C32.0497 17.5325 31.4011 17.2618 30.9969 16.904L30.6397 16.585L30.7431 16.904C30.9217 17.4358 31.6267 18.0642 32.3787 18.3639C33.046 18.6249 33.046 18.6346 33.1024 19.0407C33.1306 19.263 33.3092 19.9398 33.4878 20.5392C33.6758 21.1483 33.8262 21.7187 33.8262 21.825C33.8262 22.0571 33.4878 22.2794 32.8862 22.4438C32.1437 22.6468 32.0121 22.8112 32.0685 23.4686C32.1061 23.9713 32.0967 24.0293 31.8899 24.1163C31.5233 24.3 30.7619 24.358 30.4329 24.242L30.1321 24.1357L30.1791 24.5611C30.2073 24.7931 30.3201 25.1798 30.4329 25.4119C30.6867 25.9533 30.6867 25.9726 30.3577 25.9726C30.0569 25.9726 29.5024 26.1563 29.5024 26.253C29.5024 26.2916 29.446 26.398 29.3802 26.4947C29.2674 26.6494 29.2204 26.6397 28.6094 26.369C27.3874 25.8469 24.3701 24.8318 24.2855 24.9285C24.2667 24.9478 24.7649 25.1895 25.3947 25.4795C31.3917 28.1962 34.2868 30.9709 34.7662 34.4707C35.0012 36.211 34.1928 38.1156 32.7735 39.15C31.1003 40.3682 28.7316 40.6582 25.9399 39.9815C25.5075 39.8848 25.1315 39.8075 25.1127 39.8268C25.0657 39.8751 26.2407 40.3295 27.0115 40.5616C29.3426 41.2577 31.6643 41.0256 33.328 39.9331C35.3302 38.6183 36.3171 35.9596 35.7155 33.5136C35.114 31.0676 33.516 29.1244 30.7525 27.4711C30.1227 27.1037 29.9723 26.9684 29.9723 26.7847C29.9723 26.5817 30.0005 26.572 30.2167 26.6494C30.8747 26.9104 31.5703 26.601 31.5703 26.0499C31.5703 25.8856 31.4669 25.5569 31.3353 25.3248L31.0909 24.9091H31.7959C32.1813 24.9091 32.6043 24.8704 32.7359 24.8124C33.0836 24.6771 33.14 24.3 32.8956 23.778C32.7923 23.5459 32.6983 23.3139 32.6983 23.2656C32.6983 23.2076 32.9238 23.1689 33.1964 23.1689C33.845 23.1689 34.3244 23.0239 34.6722 22.7242C35.0764 22.3664 35.0482 21.9894 34.4842 20.4812C34.2304 19.7851 34.0142 19.1567 34.0142 19.089C34.0142 19.002 34.1458 18.973 34.4936 19.002C34.7474 19.0117 35.1234 19.002 35.3114 18.9633L35.6592 18.8956L35.1422 18.6829C34.5312 18.4412 34.1458 18.1899 34.0706 17.9772C33.9954 17.7838 34.3526 17.1554 34.879 16.5367C35.8847 15.3668 36.2607 14.6901 36.5709 13.5203C36.8153 12.5535 36.8341 10.9196 36.6085 10.0301C36.4675 9.48871 35.9505 8.28021 35.8565 8.28021C35.8471 8.28021 35.8847 8.57025 35.9505 8.92797Z" fill="white"/>
<path d="M35.0952 9.69174C34.8508 10.1558 34.1834 10.7649 33.6664 10.9969C32.8675 11.345 31.9557 11.403 30.0476 11.2386C27.9232 11.0453 27.3781 11.0453 26.5509 11.2289C24.0788 11.7703 22.697 13.7136 22.5936 16.8364L22.5466 17.9965L22.7628 17.1747C23.4678 14.5451 24.1822 13.3752 25.5075 12.7275C26.4193 12.2828 26.9833 12.2151 29.352 12.2344C32.8769 12.2634 33.986 11.983 34.7756 10.8616C35.0294 10.5038 35.396 9.47904 35.3114 9.39203C35.2926 9.37269 35.1986 9.50804 35.0952 9.69174Z" fill="white"/>
<path d="M13.382 15.8889C11.8592 16.2176 10.5339 16.9621 9.38713 18.1416C7.62939 19.9398 6.75522 22.1731 6.87742 24.5707C6.99961 26.9684 7.86438 29.0664 9.45293 30.8066C10.3741 31.8121 11.2953 32.4791 12.442 32.9819C12.912 33.1849 13.7768 33.6006 14.369 33.9197C14.9611 34.2291 15.7037 34.5481 16.0139 34.6254C16.7847 34.8285 17.7716 34.8091 18.6552 34.5771L19.3978 34.3741L19.8678 34.9058C22.1707 37.4968 26.1279 37.9512 28.2805 35.8726C29.0136 35.1668 29.5024 33.9874 29.5024 32.9529C29.493 31.7347 28.7504 29.9075 27.8669 28.9213L27.3405 28.3413L27.7635 29.2694C28.6377 31.203 28.788 32.8949 28.1959 34.1324C27.8481 34.8575 27.3875 35.2925 26.5133 35.7179C24.7086 36.5977 22.2459 36.211 20.037 34.6931L19.5294 34.3547L20.0746 34.055C20.8453 33.6296 21.1837 33.3686 21.9075 32.6628L22.5467 32.0344L23.0824 32.0828C23.3832 32.1118 24.0318 32.3051 24.5206 32.4985C25.4606 32.8755 26.1185 33.0302 26.1185 32.8562C26.1185 32.7015 25.376 32.0634 25 31.8894C24.765 31.7831 24.3608 31.7347 23.7028 31.7347C23.167 31.725 22.7347 31.7154 22.7347 31.696C22.7347 31.6864 22.8381 31.5027 22.9603 31.2997C23.5712 30.3039 23.966 28.815 23.9472 27.5485C23.9284 26.7074 23.9566 26.6494 23.6276 28.3896C23.2422 30.4005 21.6255 32.4211 19.7362 33.2332C17.8844 34.026 16.3899 33.968 15.0081 33.0399C14.6321 32.7885 14.0682 32.4791 13.758 32.3535C11.3611 31.3867 9.75371 29.9365 8.73855 27.8579C6.73642 23.7296 8.47536 18.973 12.63 17.2618C14.7731 16.382 16.9727 16.5463 18.9278 17.7162C19.8678 18.2866 21.1179 19.5531 21.7477 20.5779C22.0015 20.9936 22.2365 21.332 22.2835 21.332C22.3211 21.332 22.4245 21.2256 22.5091 21.0806C22.6877 20.8099 23.1012 20.5585 23.3738 20.5585C23.6088 20.5585 23.9096 20.9163 24.0506 21.3707C24.1916 21.825 24.1164 22.4535 23.8626 22.9755C23.6652 23.3719 23.6276 24.039 23.778 24.5707C23.8344 24.7834 23.8438 24.6964 23.8156 24.2614C23.778 23.7393 23.8062 23.604 24.06 23.1012C24.624 21.9797 24.483 20.7326 23.7498 20.2685C23.3738 20.0365 23.1012 20.0268 22.6595 20.2395C22.4245 20.3555 22.3117 20.3749 22.2929 20.2975C22.1613 19.9011 21.3717 18.8376 20.6761 18.1416C19.0688 16.5173 17.1607 15.7149 14.9611 15.7342C14.4536 15.7342 13.7486 15.8019 13.382 15.8889Z" fill="white"/>
<path d="M9.39648 21.0903C9.16149 21.8637 9.15209 22.3954 9.34948 23.0045C9.62207 23.8456 10.6184 24.6191 11.6242 24.7738C13.2785 25.0251 14.6227 22.9852 13.7767 21.506C13.2503 20.5779 12.16 20.2685 11.5114 20.8486C11.1448 21.1869 10.938 21.6994 11.0226 22.0667C11.1072 22.3858 11.2388 22.3568 11.3986 21.9701C11.784 21.0226 12.9684 21.1483 13.2315 22.1731C13.3537 22.6468 13.2315 23.1495 12.8932 23.5653C12.3762 24.184 11.6148 24.3 10.7876 23.865C9.81946 23.3622 9.35888 22.3278 9.55627 21.0999C9.60327 20.7712 9.63147 20.4909 9.62207 20.4812C9.60327 20.4619 9.49987 20.7326 9.39648 21.0903Z" fill="white"/>
<path d="M20.1967 24.9285C20.1967 25.3442 19.7643 26.1176 19.2755 26.572C19.0029 26.8137 18.7867 27.0457 18.7867 27.0747C18.7867 27.1037 18.9183 27.1328 19.0687 27.1328C19.7455 27.1328 20.5915 26.3593 20.7231 25.6149C20.7701 25.3635 20.7419 25.2185 20.6009 25.0251C20.3565 24.6868 20.1967 24.6481 20.1967 24.9285Z" fill="white"/>
<path d="M20.6197 29.6271C20.5257 29.8495 20.2719 30.2072 20.0463 30.4102C19.6421 30.7776 19.6327 30.7872 19.8583 30.8453C20.1403 30.9129 20.5445 30.7679 20.8359 30.4972C21.0803 30.2555 21.1179 29.6948 20.9111 29.4047C20.7889 29.221 20.7701 29.2404 20.6197 29.6271Z" fill="white"/>
<path d="M6.6988 29.7238C5.99383 30.1975 5.48625 30.7776 5.16666 31.4737C4.95986 31.9377 4.92227 32.1408 4.93167 32.9335C4.94107 34.4514 5.38285 35.7276 6.53901 37.5162C7.25338 38.6183 8.77613 40.2812 9.94169 41.2383C13.0812 43.8197 17.4332 45.7629 22.1613 46.7007C24.671 47.2035 25.4793 47.2905 27.8105 47.2808C29.8502 47.2808 30.1134 47.2615 31.2319 47.0101C35.4618 46.0916 38.1407 43.6843 38.8645 40.1555C39.0149 39.3821 39.0337 37.6612 38.8927 36.8394C38.4603 34.2871 36.7684 31.7057 34.4842 30.1008C34.0894 29.8301 34.1082 29.8591 34.7286 30.5262C37.9715 34.0163 38.9115 38.1252 37.2289 41.4897C36.7496 42.4468 35.4618 43.752 34.3902 44.3611C32.5479 45.3956 30.7056 45.8113 27.9515 45.8209C26.0339 45.8209 24.577 45.6663 22.5467 45.2505C15.2431 43.7617 8.32495 39.4207 6.32282 35.0895C5.29825 32.8562 5.43925 31.3383 6.8116 29.9751C7.14999 29.6368 7.39438 29.3564 7.34738 29.3564C7.29098 29.3564 7.00899 29.5207 6.6988 29.7238Z" fill="white"/>
<path d="M16.6342 30.0138C16.3428 30.6036 15.7131 31.2513 15.3371 31.348C15.0739 31.4157 15.0645 31.5413 15.2995 31.6767C16.0703 32.0924 17.0948 31.145 17.0948 30.0235C17.0948 29.7721 17.0572 29.5304 17.0008 29.5014C16.9538 29.4724 16.7846 29.7044 16.6342 30.0138Z" fill="white"/>
</svg>
